<svg xmlns="http://www.w3.org/2000/svg" xmlns:xlink="http://www.w3.org/1999/xlink" viewBox="0 0 1000 1000" width="1000" height="1000" preserveAspectRatio="xMidYMid meet" style="width: 100%; height: 100%; transform: translate3d(0px, 0px, 0px); content-visibility: visible;"><defs><clipPath id="__lottie_element_1513"><rect width="1000" height="1000" x="0" y="0"></rect></clipPath><symbol id="__lottie_element_1521"><g><g transform="matrix(1,0,0,1,500,500)" opacity="1" style="display: block;"><g opacity="1" transform="matrix(1,0,0,1,0,0)"><path stroke-linecap="butt" stroke-linejoin="miter" fill-opacity="0" stroke-miterlimit="4" stroke="rgb(77,96,10)" stroke-opacity="1" stroke-width="13" d=" M-125.5,-9.5 C-125.5,-9.5 -57.5,-92 111.5,-45"></path></g></g></g></symbol><symbol id="__lottie_element_1527"><g><g transform="matrix(1,0,0,1,479.5,539.5)" opacity="1" style="display: block;"><g opacity="1" transform="matrix(1,0,0,1,0,0)"><path stroke-linecap="butt" stroke-linejoin="miter" fill-opacity="0" stroke-miterlimit="4" stroke="rgb(77,96,10)" stroke-opacity="1" stroke-width="15" d=" M-125.5,-9.5 C-125.5,-9.5 -63.5,-99 103,-76"></path></g></g></g></symbol><symbol id="__lottie_element_1533"><g><g transform="matrix(1,0,0,1,461,584.5)" opacity="1" style="display: block;"><g opacity="1" transform="matrix(1,0,0,1,0,0)"><path stroke-linecap="butt" stroke-linejoin="miter" fill-opacity="0" stroke-miterlimit="4" stroke="rgb(77,96,10)" stroke-opacity="1" stroke-width="15" d=" M-125.5,-9.5 C-125.5,-9.5 -63.75,-112.25 89.5,-106"></path></g></g></g></symbol><mask id="__lottie_element_1533_1" mask-type="alpha"><use xlink:href="#__lottie_element_1533"></use></mask><mask id="__lottie_element_1527_1" mask-type="alpha"><use xlink:href="#__lottie_element_1527"></use></mask><mask id="__lottie_element_1521_1" mask-type="alpha"><use xlink:href="#__lottie_element_1521"></use></mask></defs><g clip-path="url(#__lottie_element_1513)"><g transform="matrix(1,0,0,1,0,-0.000030517578125)" opacity="1" style="display: block;"><g opacity="1" transform="matrix(1,0,0,1,529.2249755859375,607.7789916992188)"><path fill="rgb(240,195,146)" fill-opacity="1" d=" M-200.64300537109375,-13.949999809265137 C-199.90699768066406,-11.248000144958496 -199.1929931640625,-9.017999649047852 -198.51199340820312,-7.369999885559082 C-198.5,-7.3480000495910645 -198.5,-7.326000213623047 -198.49000549316406,-7.303999900817871 C-196.23800659179688,-1.8109999895095825 -194.35899353027344,3.693000078201294 -192.80999755859375,8.920999526977539 C-192.47000122070312,10.086000442504883 -192.13999938964844,11.229000091552734 -191.83200073242188,12.348999977111816 C-191.53599548339844,13.413999557495117 -191.25,14.468999862670898 -190.98699951171875,15.489999771118164 C-190.92100524902344,15.732999801635742 -190.86599731445312,15.973999977111816 -190.8000030517578,16.215999603271484 C-190.5030059814453,17.368999481201172 -190.22799682617188,18.48900032043457 -189.9759979248047,19.58799934387207 C-189.75599670410156,20.488000869750977 -189.5590057373047,21.367000579833984 -189.36099243164062,22.225000381469727 C-189.0970001220703,23.399999618530273 -188.85499572753906,24.5310001373291 -188.625,25.6299991607666 C-186.4720001220703,36.06700134277344 -185.81199645996094,43.1619987487793 -185.81199645996094,43.1619987487793 C-189.6020050048828,76.18499755859375 -193.39300537109375,109.20700073242188 -197.17100524902344,142.23899841308594 C-197.61099243164062,146.052001953125 -198.03900146484375,150.0070037841797 -196.83099365234375,153.6540069580078 C-195.34800720214844,158.1909942626953 -191.59100341796875,161.56399536132812 -187.9219970703125,164.63900756835938 C-136.906005859375,207.38299560546875 -73.03700256347656,234.85800170898438 -6.696000099182129,242.5800018310547 C-3.7850000858306885,242.91000366210938 -0.5659999847412109,243.14100646972656 1.8170000314712524,241.4600067138672 C4.26800012588501,239.71299743652344 5.047999858856201,236.49400329589844 5.651000022888184,233.57200622558594 C8.826000213623047,218.20399475097656 12.00100040435791,202.82400512695312 15.175999641418457,187.45599365234375 C50.10900115966797,211.53500366210938 92.052001953125,225.4759979248047 134.5760040283203,227.16799926757812 C148.41799926757812,227.70599365234375 162.66600036621094,226.9040069580078 175.38699340820312,221.48800659179688 C188.10800170898438,216.06199645996094 199.1699981689453,205.32899475097656 201.88400268554688,191.85000610351562 C203.52099609375,183.76499938964844 202.09300231933594,175.3719940185547 200.10499572753906,167.35299682617188 C196.1060028076172,151.25900268554688 189.843994140625,135.71499633789062 181.56100463867188,121.322998046875 C171.3769989013672,103.6050033569336 158.052001953125,81.29299926757812 170.3780059814453,64.95800018310547 C170.93800354003906,70.58200073242188 173.79400634765625,75.94400024414062 178.15499877929688,79.5790023803711 C180.6269989013672,72.04299926757812 183.0989990234375,64.51899719238281 185.57000732421875,56.99300003051758 C187.08599853515625,60.25600051879883 188.60299682617188,63.52899932861328 190.1179962158203,66.78099822998047 C203.927001953125,45.79899978637695 199.1820068359375,14.842000007629395 179.6929931640625,-1.13100004196167 C193.85400390625,-5.063000202178955 211.26600646972656,-13.477999687194824 209.58399963378906,-27.957000732421875 C209.1230010986328,-31.888999938964844 207.19000244140625,-35.47100067138672 205.2779998779297,-38.94200134277344 C191.2830047607422,-64.46099853515625 177.28700256347656,-89.9800033569336 163.30299377441406,-115.48799896240234 C168.24600219726562,-113.33499908447266 174.24400329589844,-116.74099731445312 176.6840057373047,-121.52999877929688 C179.11099243164062,-126.31999969482422 178.8800048828125,-131.96600341796875 178.32000732421875,-137.30499267578125 C175.13499450683594,-168.08599853515625 163.13900756835938,-197.92300415039062 144.08999633789062,-222.43099975585938 C146.80499267578125,-222.77699279785156 117.45700073242188,-242.16400146484375 74.19100189208984,-238.3000030517578 C-197.44700622558594,-243.14100646972656 -211.26600646972656,-52.553001403808594 -200.64300537109375,-13.949999809265137z"></path></g><g opacity="1" transform="matrix(1,0,0,1,484.0299987792969,575.7069702148438)"><path fill="rgb(219,162,119)" fill-opacity="1" d=" M-2.4019999504089355,-3.2190001010894775 C0.5350000262260437,-7.1529998779296875 10.531999588012695,-22.99799919128418 9.913000106811523,-23.4689998626709 C4.698999881744385,-27.43899917602539 2.8519999980926514,-22.040000915527344 0.5509999990463257,-18.992000579833984 C-4.484000205993652,-12.322999954223633 -9.10200023651123,-5.339000225067139 -14.105999946594238,1.3559999465942383 C-16.966999053955078,5.183000087738037 -17.374000549316406,8.635000228881836 -13.189000129699707,11.460000038146973 C-5.326000213623047,16.767000198364258 2.5999999046325684,22.003999710083008 10.755999565124512,26.839000701904297 C11.081999778747559,27.031999588012695 11.463000297546387,27.132999420166016 11.881999969482422,27.16900062561035 C14.970000267028809,27.43899917602539 17.374000549316406,24.531999588012695 16.89299964904785,21.468000411987305 C16.773000717163086,20.702999114990234 16.551000595092773,20.01799964904785 16.131000518798828,19.489999771118164 C12.10200023651123,14.418999671936035 -0.2529999911785126,0.11599999666213989 -2.4019999504089355,-3.2190001010894775z"></path></g><g opacity="1" transform="matrix(1,0,0,1,455.5679931640625,579.5369873046875)"><path fill="rgb(219,162,119)" fill-opacity="1" d=" M-46.034000396728516,-15.378999710083008 C-43.72700119018555,-4.085999965667725 -34.284000396728516,39.25600051879883 24.886999130249023,68.802001953125 C39.46500015258789,76.11799621582031 51.28499984741211,69.26399993896484 53.21900177001953,54.3120002746582 C49.858001708984375,52.641998291015625 47.26499938964844,51.89500045776367 45.176998138427734,56.641998291015625 C41.409000396728516,65.18699645996094 36.85100173950195,67.36299896240234 27.854000091552734,63.749000549316406 C-41.332000732421875,30.343000411987305 -39.222999572753906,-35.922000885009766 -33.104000091552734,-44.28099822998047 C-33.104000091552734,-44.28099822998047 -21.393999099731445,-76.11699676513672 38.904998779296875,-50.597999572753906 C37.09199905395508,-51.641998291015625 6.256999969482422,-69.04299926757812 -18.131000518798828,-67.3290023803711 C-37.762001037597656,-65.94400024414062 -53.21900177001953,-50.465999603271484 -46.034000396728516,-15.378999710083008z"></path></g><g opacity="1" transform="matrix(1,0,0,1,344.54998779296875,622.6220092773438)"><path fill="rgb(0,0,0)" fill-opacity="1" d=" M-6.124000072479248,1.3739999532699585 C-5.828000068664551,2.5269999504089355 -5.553999900817871,3.6459999084472656 -5.301000118255615,4.744999885559082 C-1.2480000257492065,3.427000045776367 5.839000225067139,0.8240000009536743 6.125,-1.218999981880188 C6.125,-1.218999981880188 4.948999881744385,-4.744999885559082 4.948999881744385,-4.744999885559082 C4.948999881744385,-4.744999885559082 1.1920000314712524,-0.15299999713897705 -6.124000072479248,1.3739999532699585z"></path></g><g opacity="1" transform="matrix(1,0,0,1,345.989013671875,628.64697265625)"><path fill="rgb(0,0,0)" fill-opacity="1" d=" M-6.125,1.3569999933242798 C-5.861000061035156,2.5320000648498535 -5.619999885559082,3.6640000343322754 -5.388999938964844,4.76200008392334 C-1.3459999561309814,3.444000005722046 5.8379998207092285,0.8190000057220459 6.124000072479248,-1.2359999418258667 C6.124000072479248,-1.2359999418258667 4.947999954223633,-4.76200008392334 4.947999954223633,-4.76200008392334 C4.947999954223633,-4.76200008392334 1.190999984741211,-0.1809999942779541 -6.125,1.3569999933242798z"></path></g><g opacity="1" transform="matrix(1,0,0,1,444.0830078125,483.92498779296875)"><path fill="rgb(34,34,34)" fill-opacity="1" d=" M-194.26600646972656,-22.29400062561035 C-187.85000610351562,6.729000091552734 -169.62600708007812,31.479000091552734 -152.4550018310547,55.74599838256836 C-135.63699340820312,79.50800323486328 -107.29499816894531,131.8520050048828 -107.29499816894531,131.8520050048828 C-97.90299987792969,124.38300323486328 -85.54299926757812,108.5530014038086 -85.54299926757812,108.5530014038086 C-26.90999984741211,84.93800354003906 -68.41699981689453,-6.60699987411499 -68.41699981689453,-6.60699987411499 C-68.41699981689453,-6.60699987411499 -69.51599884033203,-6.60699987411499 -69.51599884033203,-6.60699987411499 C-43.492000579833984,-34.09199905395508 0.44999998807907104,-56.17300033569336 42.64500045776367,-56.60200119018555 C84.83899688720703,-57.029998779296875 126.28800201416016,-46.56100082397461 167.14199829101562,-36.0260009765625 C159.97999572753906,-43.880001068115234 150.3679962158203,-49.46099853515625 139.9980010986328,-51.790000915527344 C150.11500549316406,-49.51599884033203 160.23300170898438,-47.242000579833984 170.36099243164062,-44.96799850463867 C164.1320037841797,-58.04100036621094 160.3090057373047,-73.11199951171875 164.38499450683594,-87.00900268554688 C168.4499969482422,-100.8949966430664 182.41200256347656,-112.52799987792969 196.67100524902344,-110.05699920654297 C196.67100524902344,-110.05699920654297 199.5050048828125,-108.99099731445312 199.5050048828125,-108.99099731445312 C199.5050048828125,-108.99099731445312 200.6699981689453,-109.83699798583984 200.6699981689453,-109.83699798583984 C153.49899291992188,-120.89900207519531 90.58599853515625,-131.8520050048828 32.275001525878906,-129.8300018310547 C-31.56100082397461,-127.61100006103516 -87.125,-126.31500244140625 -134.11000061035156,-121.59100341796875 C-144.96299743652344,-111.79199981689453 -151.27999877929688,-104.36599731445312 -165.4290008544922,-100.13700103759766 C-191.67300415039062,-86.1520004272461 -200.6699981689453,-51.32899856567383 -194.26600646972656,-22.29400062561035z"></path></g><g opacity="1" transform="matrix(1,0,0,1,492.9230041503906,365.7300109863281)"><path fill="rgb(240,195,146)" fill-opacity="1" d=" M148.38999938964844,15.503000259399414 C149.54200744628906,15.456000328063965 150.51199340820312,14.197999954223633 150.6490020751953,12.461000442504883 C150.802001953125,10.51200008392334 149.47000122070312,8.57800006866455 148.13999938964844,8.288999557495117 C147.60499572753906,8.17300033569336 94.24800109863281,-3.250999927520752 31.049999237060547,-8.475000381469727 C-54.00600051879883,-15.508999824523926 -114.7770004272461,-8.371999740600586 -149.57899475097656,12.737000465393066 C-150.802001953125,13.477999687194824 -95.16699981689453,0.28600001335144043 -68.26899719238281,-2.115000009536743 C25.975000381469727,-10.526000022888184 146.36099243164062,15.118000030517578 147.96400451660156,15.465999603271484 C148.10800170898438,15.496999740600586 148.25,15.508999824523926 148.38999938964844,15.503000259399414z"></path></g></g><g mask="url(#__lottie_element_1521_1)" style="display: block;"><g transform="matrix(1,0,0,1,0,0)" opacity="1"><g opacity="1" transform="matrix(1,0,0,1,491.11199951171875,457.7309875488281)"><path fill="rgb(34,34,34)" fill-opacity="1" d=" M114.72699737548828,-5.48199987411499 C50.51100158691406,-27.670000076293945 -53.904998779296875,-34.979000091552734 -114.72699737548828,27.67099952697754 C-114.72699737548828,27.67099952697754 -111.8550033569336,34.979000091552734 -111.8550033569336,34.979000091552734 C-111.8550033569336,34.979000091552734 -58.08100128173828,-27.930999755859375 114.72699737548828,-5.48199987411499z"></path></g></g></g><g mask="url(#__lottie_element_1527_1)" style="display: block;"><g transform="matrix(1,0,0,1,0,0)" opacity="1"><g opacity="1" transform="matrix(1,0,0,1,468.7510070800781,489.427001953125)"><path fill="rgb(34,34,34)" fill-opacity="1" d=" M111.26300048828125,-29.458999633789062 C44.56800079345703,-42.4119987487793 -59.84000015258789,-34.98899841308594 -111.26399993896484,35.57899856567383 C-111.26399993896484,35.57899856567383 -107.3949966430664,42.4119987487793 -107.3949966430664,42.4119987487793 C-107.3949966430664,42.4119987487793 -62.986000061035156,-27.424999237060547 111.26300048828125,-29.458999633789062z"></path></g></g></g><g mask="url(#__lottie_element_1533_1)" style="display: block;"><g transform="matrix(1,0,0,1,0,-0.000030517578125)" opacity="1"><g opacity="1" transform="matrix(1,0,0,1,439.4590148925781,524.8729858398438)"><path fill="rgb(34,34,34)" fill-opacity="1" d=" M104.98600006103516,-50.91999816894531 C37.095001220703125,-53.527000427246094 -64.9520034790039,-30.232999801635742 -104.98600006103516,47.3650016784668 C-104.98600006103516,47.3650016784668 -100.11699676513672,53.527000427246094 -100.11699676513672,53.527000427246094 C-100.11699676513672,53.527000427246094 -66.62100219726562,-31.586000442504883 104.98600006103516,-50.91999816894531z"></path></g></g></g><g transform="matrix(1,0,0,1,0,0)" opacity="1" style="display: block;"><g opacity="1" transform="matrix(1,0,0,1,610.5120239257812,727.1090087890625)"><path fill="rgb(34,34,34)" fill-opacity="1" d=" M-117.90599822998047,6.046999931335449 C-108.99700164794922,26.381000518798828 -57.70600128173828,110.21099853515625 53.81800079345703,110.06800079345703 C67.65899658203125,110.61699676513672 81.89700317382812,109.80500030517578 94.61699676513672,104.34600067138672 C107.33799743652344,98.875 118.38999938964844,88.04199981689453 121.11499786376953,74.4530029296875 C122.73999786376953,66.29100036621094 121.31199645996094,57.83300018310547 119.322998046875,49.73699951171875 C115.33599853515625,33.512001037597656 109.0739974975586,17.833999633789062 100.802001953125,3.312000036239624 C90.60800170898438,-14.550999641418457 77.29299926757812,-37.058998107910156 89.60800170898438,-53.53799819946289 C89.60800170898438,-53.53799819946289 70.1969985961914,-63.12799835205078 67.35199737548828,-72.14600372314453 C65.98999786376953,-60.61199951171875 66.23100280761719,-57.446998596191406 61.11199951171875,-56.6349983215332 C34.74700164794922,-52.19599914550781 15.456000328063965,-73.38899993896484 -51.2239990234375,-110.17900085449219 C-51.2239990234375,-110.17900085449219 -79.73200225830078,-110.61699676513672 -79.73200225830078,-110.61699676513672 C-81.9280014038086,-81.75800323486328 -92.69400024414062,-53.51599884033203 -110.80899810791016,-30.93000030517578 C-115.26899719238281,-25.371000289916992 -120.322998046875,-19.767000198364258 -121.58599853515625,-12.758999824523926 C-122.73899841308594,-6.375999927520752 -120.51000213623047,0.10499999672174454 -117.90599822998047,6.046999931335449z"></path></g><g opacity="1" transform="matrix(1,0,0,1,551.3880004882812,596.0150146484375)"><path fill="rgb(34,34,34)" fill-opacity="1" d=" M-23.058000564575195,-18.77400016784668 C-22.905000686645508,-18.0049991607666 -22.75,-17.236000061035156 -22.607999801635742,-16.466999053955078 C-22.42099952697754,-15.489999771118164 -22.246000289916992,-14.51200008392334 -22.079999923706055,-13.52299976348877 C-21.905000686645508,-12.446999549865723 -21.729000091552734,-11.359000205993652 -21.575000762939453,-10.260000228881836 C-21.47599983215332,-9.524999618530273 -21.37700080871582,-8.777999877929688 -21.288999557495117,-8.031000137329102 C-21.14699935913086,-6.986999988555908 -21.025999069213867,-5.942999839782715 -20.927000045776367,-4.900000095367432 C-20.850000381469727,-4.197000026702881 -20.784000396728516,-3.49399995803833 -20.729000091552734,-2.7799999713897705 C-20.322999954223633,1.8680000305175781 -20.14699935913086,6.525000095367432 -20.21299934387207,11.194000244140625 C-20.20199966430664,11.753999710083008 -20.21299934387207,12.314000129699707 -20.235000610351562,12.87399959564209 C-20.2450008392334,13.4350004196167 -20.26799964904785,13.996000289916992 -20.288999557495117,14.555000305175781 C-20.301000595092773,15.116000175476074 -20.322999954223633,15.675999641418457 -20.356000900268555,16.236000061035156 C-20.45400047302246,18.488000869750977 -20.608999252319336,20.729000091552734 -20.827999114990234,22.969999313354492 C-20.827999114990234,22.969999313354492 7.89900016784668,20.915000915527344 7.89900016784668,20.915000915527344 C12.95199966430664,6.283999919891357 18.0049991607666,-8.338000297546387 23.058000564575195,-22.969999313354492 C7.690000057220459,-21.565000534057617 -7.690000057220459,-20.170000076293945 -23.058000564575195,-18.77400016784668z"></path></g><g opacity="1" transform="matrix(1,0,0,1,618.5750122070312,625.7100219726562)"><path fill="rgb(34,34,34)" fill-opacity="1" d=" M59.28799819946289,29.253000259399414 C54.59700012207031,28.242000579833984 49.90599822998047,27.22100067138672 45.215999603271484,26.209999084472656 C44.84199905395508,28.736000061035156 44.46900177001953,31.26300048828125 44.08399963378906,33.78900146484375 C43.42499923706055,27.187999725341797 38.40399932861328,20.858999252319336 31.746999740600586,19.773000717163086 C31.340999603271484,22.93600082397461 30.94499969482422,26.099000930786133 30.549999237060547,29.273000717163086 C29.891000747680664,21.957000732421875 25.386999130249023,14.894000053405762 18.631000518798828,11.873000144958496 C17.81800079345703,14.729000091552734 16.993999481201172,17.597000122070312 16.170000076293945,20.452999114990234 C16.753000259399414,13.104000091552734 12.039999961853027,5.2170000076293945 4.801000118255615,3.2060000896453857 C3.933000087738037,6.315999984741211 3.063999891281128,9.423999786376953 2.184999942779541,12.532999992370605 C2.316999912261963,4.974999904632568 -1.340999960899353,-2.749000072479248 -7.833000183105469,-6.72599983215332 C-9.128999710083008,-3.484999895095825 -10.425999641418457,-0.2540000081062317 -11.722000122070312,2.9760000705718994 C-10.392999649047852,-4.813000202178955 -13.776000022888184,-13.54699993133545 -20.674999237060547,-17.621999740600586 C-22.06999969482422,-14.458000183105469 -23.46500015258789,-11.307000160217285 -24.871000289916992,-8.142999649047852 C-23.201000213623047,-16.283000946044922 -25.83799934387207,-25.39900016784668 -32.231998443603516,-30.79400062561035 C-34.680999755859375,-24.893999099731445 -37.13100051879883,-18.985000610351562 -39.58000183105469,-13.086000442504883 C-36.35100173950195,-24.895000457763672 -36.75699996948242,-37.70399856567383 -40.986000061035156,-49.20600128173828 C-47.08399963378906,-35.72700119018555 -53.191001892089844,-22.257999420166016 -59.28799819946289,-8.779000282287598 C7.390999794006348,28.013999938964844 26.680999755859375,49.20500183105469 53.04600143432617,44.768001556396484 C58.16400146484375,43.95199966430664 57.92100143432617,40.78799819946289 59.28799819946289,29.253000259399414z"></path></g></g><g transform="matrix(1,0,0,1,0,0)" opacity="1" style="display: block;"><g opacity="1" transform="matrix(1,0,0,1,705.6400146484375,647.6179809570312)"><path fill="rgb(34,34,34)" fill-opacity="1" d=" M-27.775999069213867,7.343999862670898 C-24.930999755859375,16.363000869750977 -2.1029999256134033,37.0369987487793 2.257999897003174,40.70600128173828 C5.014999866485596,32.22800064086914 7.441999912261963,24.770999908447266 9.67199993133545,17.922000885009766 C11.187999725341797,21.218000411987305 12.704000473022461,24.513999938964844 14.220000267028809,27.79800033569336 C28.01799964904785,6.629000186920166 23.27199935913086,-24.590999603271484 3.7950000762939453,-40.69499969482422 C3.805999994277954,-40.69499969482422 3.805999994277954,-40.707000732421875 3.805999994277954,-40.707000732421875 C3.5969998836517334,-40.707000732421875 -8.8149995803833,-38.20199966430664 -8.8149995803833,-38.20199966430664 C-20.98699951171875,-26.458999633789062 -28.01799964904785,-9.562999725341797 -27.775999069213867,7.343999862670898z"></path></g></g><g transform="matrix(1,0,0,1,0,0)" opacity="1" style="display: block;"><g opacity="1" transform="matrix(1,0,0,1,702.458984375,269.22698974609375)"><path fill="rgb(34,34,34)" fill-opacity="1" d=" M-58.869998931884766,105.70700073242188 C-58.869998931884766,105.70700073242188 -58.43199920654297,105.88300323486328 -58.43199920654297,105.88300323486328 C-58.43199920654297,105.88300323486328 -31.034000396728516,116.22000122070312 -31.034000396728516,116.22000122070312 C9.149999618530273,109.552001953125 41.369998931884766,74.44200134277344 51.69599914550781,34.86199951171875 C58.869998931884766,7.388000011444092 56.77199935913086,-21.724000930786133 49.027000427246094,-48.834999084472656 C45.314998626708984,-61.85300064086914 40.66699981689453,-75.52999877929688 33.604000091552734,-87.06400299072266 C26.485000610351562,-98.68699645996094 17.136999130249023,-106.28900146484375 8.326000213623047,-116.22000122070312 C53.06999969482422,-65.7969970703125 55.00299835205078,17.285999298095703 12.644000053405762,69.7300033569336 C36.85599899291992,11.331999778747559 19.03700065612793,-61.808998107910156 -29.343000411987305,-102.51000213623047 C-6.086999893188477,-75.80500030517578 9.699999809265137,-41.72800064086914 10.590999603271484,-6.322000026702881 C11.468999862670898,29.083999633789062 -3.757999897003174,65.46700286865234 -32.2859992980957,86.45999908447266 C-32.2859992980957,86.45999908447266 -58.869998931884766,105.70700073242188 -58.869998931884766,105.70700073242188z"></path></g><g opacity="1" transform="matrix(1,0,0,1,487.2279968261719,267.5740051269531)"><path fill="rgb(34,34,34)" fill-opacity="1" d=" M-215.2969970703125,120.53099822998047 C-79.48600006103516,71.48699951171875 87.12000274658203,93.1449966430664 145.91299438476562,106.26200103759766 C148.4080047607422,105.86599731445312 150.9550018310547,105.84300231933594 153.52699279785156,106.29399871826172 C153.52699279785156,106.29399871826172 156.36099243164062,107.36100006103516 156.36099243164062,107.36100006103516 C156.36099243164062,107.36100006103516 182.9459991455078,88.11399841308594 182.9459991455078,88.11399841308594 C184.6699981689453,86.01599884033203 186.3070068359375,83.85099792480469 187.8769989013672,81.64299774169922 C188.2729949951172,81.0719985961914 188.67999267578125,80.5009994506836 189.05299377441406,79.93000030517578 C189.24000549316406,79.66600036621094 189.42599487304688,79.40299987792969 189.59100341796875,79.13899993896484 C192.87600708007812,74.26100158691406 195.7760009765625,69.14199829101562 198.29100036621094,63.83599853515625 C215.1320037841797,28.507999420166016 215.2969970703125,-14.88599967956543 197.072998046875,-49.6879997253418 C174.38800048828125,-93.0250015258789 124.53600311279297,-120.53099822998047 75.78299713134766,-116.61000061035156 C89.74500274658203,-115.4010009765625 141.05799865722656,-71.66799926757812 61.60100173950195,-77.52400207519531 C43.83700180053711,-78.74299621582031 26.766000747680664,-84.70800018310547 9.232999801635742,-87.83899688720703 C-39.090999603271484,-96.46199798583984 -91.01899719238281,-82.11499786376953 -128.072998046875,-49.90599822998047 C-142.99099731445312,-36.944000244140625 -155.7779998779297,-20.839000701904297 -161.69900512695312,-1.9769999980926514 C-169.64199829101562,23.32200050354004 -163.90699768066406,52.47700119018555 -146.97900390625,72.88800048828125 C-183.20899963378906,93.5739974975586 -185.22999572753906,109.23899841308594 -208.57400512695312,116.21499633789062 C-210.95799255371094,117.48899841308594 -213.19900512695312,118.927001953125 -215.2969970703125,120.53099822998047z"></path></g><g opacity="1" transform="matrix(1,0,0,1,503.7619934082031,271.4949951171875)"><path fill="rgb(0,0,0)" fill-opacity="1" d=" M40.32600021362305,-62.84199905395508 C13.440999984741211,-21.378999710083008 -13.442999839782715,20.086000442504883 -40.32600021362305,61.54999923706055 C-40.32600021362305,61.54999923706055 -38.29199981689453,62.84199905395508 -38.29199981689453,62.84199905395508 C-8.28600025177002,23.333999633789062 23.118999481201172,-15.293000221252441 40.32600021362305,-62.84199905395508z"></path></g><g opacity="1" transform="matrix(1,0,0,1,372.8489990234375,275.5870056152344)"><path fill="rgb(0,0,0)" fill-opacity="1" d=" M37.59000015258789,-63.39500045776367 C-9.277000427246094,-54.46099853515625 -37.59000015258789,19.357999801635742 -12.16100025177002,63.39500045776367 C-21.3700008392334,11.607000350952148 -13.713000297546387,-33.71200180053711 37.59000015258789,-63.39500045776367z"></path></g><g opacity="1" transform="matrix(1,0,0,1,616.3629760742188,273.6080017089844)"><path fill="rgb(0,0,0)" fill-opacity="1" d=" M-24.290000915527344,61.62099838256836 C-10.638999938964844,59.11899948120117 10.293000221252441,34.17499923706055 15.16100025177002,13.206999778747559 C21.893999099731445,-15.791999816894531 14.121999740600586,-40.86899948120117 -7.052000045776367,-61.62099838256836 C24.290000915527344,-13.815999984741211 12.390000343322754,30.04400062561035 -24.290000915527344,61.62099838256836z"></path></g><g opacity="1" transform="matrix(1,0,0,1,411.74798583984375,276.1090087890625)"><path fill="rgb(0,0,0)" fill-opacity="1" d=" M-16.625999450683594,61.71500015258789 C-17.520000457763672,38.875 -12.140999794006348,17.304000854492188 -3.625,-3.558000087738037 C4.943999767303467,-24.551000595092773 15.21500015258789,-44.590999603271484 30.554000854492188,-61.71500015258789 C1.6469999551773071,-45.308998107910156 -30.554000854492188,24.250999450683594 -16.625999450683594,61.71500015258789z"></path></g><g opacity="1" transform="matrix(1,0,0,1,540.9400024414062,282.17401123046875)"><path fill="rgb(0,0,0)" fill-opacity="1" d=" M-36.933998107910156,55.6349983215332 C-15.942999839782715,49.060001373291016 36.571998596191406,-16.847999572753906 36.933998107910156,-55.6349983215332 C20.60300064086914,-14.765000343322754 5.690000057220459,7.573999881744385 -36.933998107910156,55.6349983215332z"></path></g><g opacity="1" transform="matrix(1,0,0,1,447.39300537109375,284.67498779296875)"><path fill="rgb(0,0,0)" fill-opacity="1" d=" M32.75899887084961,-59.994998931884766 C3.497999906539917,-35.26599884033203 -32.75899887084961,22.709999084472656 -28.802000045776367,59.994998931884766 C-19.62700080871582,14.621999740600586 7.269000053405762,-21.593000411987305 32.75899887084961,-59.994998931884766z"></path></g><g opacity="1" transform="matrix(1,0,0,1,659.7379760742188,258.5360107421875)"><path fill="rgb(0,0,0)" fill-opacity="1" d=" M-35.63999938964844,-83.26599884033203 C13.96399974822998,-34.95100021362305 22.582000732421875,20.83799934387207 -3.864000082015991,83.26599884033203 C35.63999938964844,33.518001556396484 17.239999771118164,-54.79100036621094 -35.63999938964844,-83.26599884033203z"></path></g><g opacity="1" transform="matrix(1,0,0,1,659.7379760742188,258.5360107421875)"><path fill="rgb(255,255,255)" fill-opacity="1" d=" M-3.864000082015991,83.26599884033203 C35.63999938964844,33.516998291015625 17.239999771118164,-54.79199981689453 -35.63999938964844,-83.26599884033203 C13.963000297546387,-34.95100021362305 22.58099937438965,20.83799934387207 -3.864000082015991,83.26599884033203z"></path></g><g opacity="1" transform="matrix(1,0,0,1,503.7619934082031,271.4949951171875)"><path fill="rgb(255,255,255)" fill-opacity="1" d=" M-38.29199981689453,62.840999603271484 C-8.28600025177002,23.333999633789062 23.118999481201172,-15.291999816894531 40.32600021362305,-62.840999603271484 C13.440999984741211,-21.37700080871582 -13.442999839782715,20.086000442504883 -40.32699966430664,61.54899978637695 C-40.32699966430664,61.54899978637695 -38.29199981689453,62.840999603271484 -38.29199981689453,62.840999603271484z"></path></g><g opacity="1" transform="matrix(1,0,0,1,372.8489990234375,275.5870056152344)"><path fill="rgb(255,255,255)" fill-opacity="1" d=" M-12.16100025177002,63.39500045776367 C-21.3700008392334,11.607000350952148 -13.713000297546387,-33.71200180053711 37.59000015258789,-63.39500045776367 C-9.276000022888184,-54.459999084472656 -37.59000015258789,19.358999252319336 -12.16100025177002,63.39500045776367z"></path></g><g opacity="1" transform="matrix(1,0,0,1,616.3629760742188,273.6080017089844)"><path fill="rgb(255,255,255)" fill-opacity="1" d=" M-7.052000045776367,-61.62099838256836 C24.290000915527344,-13.8149995803833 12.387999534606934,30.04400062561035 -24.291000366210938,61.62099838256836 C-10.640000343322754,59.11899948120117 10.293000221252441,34.17499923706055 15.16100025177002,13.208000183105469 C21.89299964904785,-15.791000366210938 14.121999740600586,-40.86899948120117 -7.052000045776367,-61.62099838256836z"></path></g><g opacity="1" transform="matrix(1,0,0,1,411.74700927734375,276.1090087890625)"><path fill="rgb(255,255,255)" fill-opacity="1" d=" M30.554000854492188,-61.71500015258789 C1.6480000019073486,-45.310001373291016 -30.554000854492188,24.250999450683594 -16.625999450683594,61.71500015258789 C-17.518999099731445,38.875 -12.140000343322754,17.304000854492188 -3.625,-3.558000087738037 C4.945000171661377,-24.551000595092773 15.215999603271484,-44.590999603271484 30.554000854492188,-61.71500015258789z"></path></g><g opacity="1" transform="matrix(1,0,0,1,540.9400024414062,282.17401123046875)"><path fill="rgb(255,255,255)" fill-opacity="1" d=" M36.933998107910156,-55.63600158691406 C20.60300064086914,-14.765999794006348 5.690000057220459,7.574999809265137 -36.933998107910156,55.63600158691406 C-15.942999839782715,49.06100082397461 36.571998596191406,-16.849000930786133 36.933998107910156,-55.63600158691406z"></path></g><g opacity="1" transform="matrix(1,0,0,1,447.39300537109375,284.67401123046875)"><path fill="rgb(255,255,255)" fill-opacity="1" d=" M-28.801000595092773,59.994998931884766 C-19.62700080871582,14.621999740600586 7.26800012588501,-21.593000411987305 32.75899887084961,-59.994998931884766 C3.497999906539917,-35.26599884033203 -32.75899887084961,22.709999084472656 -28.801000595092773,59.994998931884766z"></path></g><g opacity="1" transform="matrix(1,0,0,1,317.9670104980469,296.5849914550781)"><path fill="rgb(34,34,34)" fill-opacity="1" d=" M43.595001220703125,68.052001953125 C43.595001220703125,68.052001953125 -43.59400177001953,2.615000009536743 20.98699951171875,-71.3489990234375 C20.98699951171875,-71.3489990234375 -29.658000946044922,-57.36800003051758 -12.37600040435791,36.87900161743164 C-12.37600040435791,36.87900161743164 6.771999835968018,69.41300201416016 19.361000061035156,71.3489990234375 C19.361000061035156,71.3489990234375 43.595001220703125,68.052001953125 43.595001220703125,68.052001953125z"></path></g><g opacity="1" transform="matrix(1,0,0,1,292.54998779296875,312.8290100097656)"><path fill="rgb(34,34,34)" fill-opacity="1" d=" M2.0220000743865967,-56.845001220703125 C2.0220000743865967,-56.845001220703125 -24.69499969482422,-4.2179999351501465 39.229000091552734,51.80799865722656 C39.229000091552734,51.80799865722656 2.130000114440918,56.845001220703125 2.130000114440918,56.845001220703125 C2.130000114440918,56.845001220703125 -39.22800064086914,-29.823999404907227 2.0220000743865967,-56.845001220703125z"></path></g><g opacity="1" transform="matrix(1,0,0,1,270.7959899902344,343.34600830078125)"><path fill="rgb(34,34,34)" fill-opacity="1" d=" M37.198001861572266,12.342000007629395 C37.198001861572266,12.342000007629395 -17.375999450683594,-16.315000534057617 -15.539999961853027,-41.9370002746582 C-15.539999961853027,-41.9370002746582 -37.198001861572266,-4.4079999923706055 26.233999252319336,41.9370002746582 C26.233999252319336,41.9370002746582 37.198001861572266,12.342000007629395 37.198001861572266,12.342000007629395z"></path></g><g opacity="1" transform="matrix(1,0,0,1,269.864990234375,361.55499267578125)"><path fill="rgb(34,34,34)" fill-opacity="1" d=" M-28.774999618530273,-19.753000259399414 C-28.774999618530273,-19.753000259399414 -18.573999404907227,19.753000259399414 28.774999618530273,19.753000259399414 C28.774999618530273,19.753000259399414 28.774999618530273,5.765999794006348 28.774999618530273,5.765999794006348 C28.774999618530273,5.765999794006348 -12.713000297546387,4.869999885559082 -28.774999618530273,-19.753000259399414z"></path></g><g opacity="1" transform="matrix(1,0,0,1,269.864990234375,383.7659912109375)"><path fill="rgb(34,34,34)" fill-opacity="1" d=" M-24.815000534057617,15.840999603271484 C-24.815000534057617,15.840999603271484 24.815000534057617,-5.389999866485596 24.815000534057617,-5.389999866485596 C24.815000534057617,-5.389999866485596 -2.0309998989105225,-15.840999603271484 -2.0309998989105225,-15.840999603271484 C-2.0309998989105225,-15.840999603271484 -20.410999298095703,-7.565000057220459 -24.815000534057617,15.840999603271484z"></path></g></g></g></svg>